<svg width="399" height="58" viewBox="0 0 399 58" fill="none" xmlns="http://www.w3.org/2000/svg">
<path d="M34.496 17.0239H36.928V18.3039H36.8V19.5839H34.56V20.5439H35.136V21.8239H34.624V23.1039H33.472V23.4239H29.44V23.8719C29.44 23.9573 29.4187 24.0426 29.376 24.1279C29.376 24.2133 29.3547 24.2986 29.312 24.3839H30.784C30.5707 25.1946 30.016 25.5999 29.12 25.5999H20.864C20.6933 25.5999 20.5227 25.5999 20.352 25.5999C20.224 25.5999 20.096 25.6213 19.968 25.6639H22.528C22.3147 25.7066 22.1227 25.7493 21.952 25.7919C21.7813 25.8346 21.5893 25.8986 21.376 25.9839H23.488C23.36 26.0266 23.168 26.1333 22.912 26.3039H24.128L23.744 26.6239H24.064C23.808 26.8799 23.616 27.1999 23.488 27.5839H21.568C21.4827 27.7546 21.44 27.8613 21.44 27.9039H20.8C20.8 27.9466 20.7787 27.9893 20.736 28.0319C20.736 28.0746 20.736 28.1386 20.736 28.2239H21.504C21.4613 28.3093 21.44 28.4159 21.44 28.5439C21.44 28.6293 21.4187 28.7359 21.376 28.8639H21.76V29.8239H20.864V30.4639H21.76V31.4239H22.72V32.7039H21.312V33.0239H20.288V33.3439H24.128V34.3039H22.208V34.9439H22.848V35.5839H21.376V36.8639H20.544V37.1839H19.712V38.1439H21.888V39.1039H20.736V40.0639H21.888V40.3839H21.76V41.0239H20.352V41.6639H21.376V42.9439H21.632V43.9039H21.376C21.2907 44.5013 21.0133 44.9279 20.544 45.1839H19.968C19.7547 45.3546 19.456 45.4399 19.072 45.4399H6.912C6.528 45.4399 6.22934 45.3546 6.01601 45.1839H6.59201C6.12267 44.9279 5.84534 44.5013 5.76 43.9039H6.01601V42.9439H5.76V41.6639H4.736V41.0239H6.14401V40.3839H6.27201V40.0639H5.12V39.1039H6.27201V38.1439H4.096V37.1839H4.928V36.8639H5.76V35.5839H7.23201V34.9439H6.59201V34.3039H8.51201V33.3439H4.672V33.0239H5.69601V32.7039H7.104V31.4239H6.14401V30.4639H5.248V29.8239H6.14401V28.8639H5.76V28.2239H4.992V27.9039H5.632V27.5839H7.55201V26.6239H7.23201V26.3039H6.08V25.9839H3.968V25.6639H1.408V24.3839H4.76837e-06V23.4239H4.032V23.1039H5.18401V21.8239H5.69601V20.5439H5.12V19.5839H7.36V18.3039H7.48801V17.0239H5.05601V16.0639H7.104V14.7839H5.12V14.4639H5.76V13.8879C5.76 13.6746 5.80267 13.4399 5.88801 13.1839H5.82401C6.12267 12.5013 6.65601 12.1599 7.42401 12.1599H18.624C19.3493 12.1599 19.8613 12.5013 20.16 13.1839H20.288C20.3733 13.4399 20.416 13.6746 20.416 13.8879V14.4639H19.776V14.7839H21.76V14.9759L22.016 14.7839H22.144C22.2293 14.6986 22.3147 14.6346 22.4 14.5919C22.4853 14.5493 22.5493 14.5066 22.592 14.4639H22.72C23.5733 13.9093 24.4053 13.4826 25.216 13.1839H25.344C26.1973 12.8426 27.0507 12.5866 27.904 12.4159C28.7573 12.2453 29.6533 12.1599 30.592 12.1599H33.664C34.432 12.1599 34.9653 12.5013 35.264 13.1839H35.136C35.2213 13.4399 35.264 13.6746 35.264 13.8879V14.4639H35.2V14.7839H35.072V16.0639H34.496V17.0239ZM77.669 14.7839H72.485L72.357 15.1039H77.733L77.157 16.3839H74.661L74.149 17.6639H75.493L74.981 18.9439H72.869L72.613 19.5839H74.213L73.957 20.2239H73.573L73.445 20.5439H73.381L72.933 21.5039H73.573L73.189 22.4639H68.645L68.325 23.1039H71.845L71.717 23.4239H65.957L65.701 24.0639H65.189L64.613 25.3439H73.061L72.933 25.6639H71.461L71.141 26.3039H71.589L71.461 26.6239H71.077L70.501 27.9039L70.117 28.8639H69.349L68.901 29.8239H69.413L68.965 30.7839H69.157L69.029 31.1039H68.965L68.709 31.7439H69.029L68.773 32.3839H68.453L68.197 33.0239H68.133L67.749 33.9839H68.133L68.005 34.3039H67.621L67.173 35.2639H64.805L64.229 36.5439H65.765L65.509 37.1839H67.365L66.853 38.4639H64.741L64.485 39.1039H65.509L64.997 40.3839H64.677L64.101 41.6639H64.549L64.293 42.3039H64.165L63.845 42.9439H63.717L63.269 43.9039H63.461L63.013 44.8639H62.501L62.053 45.8239H61.157L60.837 46.4639H65.509L64.997 47.7439H60.261L59.685 49.0239H62.309L61.733 50.3039H64.357L63.781 51.5839H63.909L63.397 52.8639H55.333L55.013 53.5039H56.869L56.613 54.1439H59.429L59.109 54.7839H52.709L52.389 55.4239H55.717L55.461 56.0639C55.2477 56.6186 54.885 57.0453 54.373 57.3439H51.685C51.3437 57.5146 50.981 57.5999 50.597 57.5999H40.101C39.717 57.5999 39.4397 57.5146 39.269 57.3439H41.893C41.509 57.0453 41.317 56.6826 41.317 56.2559V56.0639C41.317 55.8933 41.3383 55.7439 41.381 55.6159L41.445 55.4239H38.117L38.437 54.7839H44.837L45.093 54.1439H42.277L42.533 53.5039H40.741L40.997 52.8639H49.061L49.637 51.5839H49.509L50.021 50.3039H47.397L47.909 49.0239H45.349L45.861 47.7439H50.597L51.109 46.4639H46.437L46.693 45.8239H47.653L48.037 44.8639H48.613L48.997 43.9039H48.869L49.125 43.3279L48.933 42.9439H49.061L48.805 42.3039H48.997L48.677 41.6639H48.229L47.717 40.3839H48.037L47.461 39.1039H46.437L46.117 38.4639H48.229L47.717 37.1839H45.797L45.541 36.5439H44.005L43.493 35.2639H45.861L45.477 34.3039H45.861L45.733 33.9839H45.285L44.901 33.0239H44.965L44.709 32.3839H44.965L44.709 31.7439H44.325L44.069 31.1039H44.133L44.005 30.7839H43.813L43.429 29.8239H42.981L42.533 28.8639H43.301L42.917 27.9039H42.021L41.509 26.6239H42.213L42.021 26.3039H43.045L42.725 25.6639H41.125L40.933 25.3439H40.869L40.293 24.0639H32.293L31.973 23.4239H36.773L36.645 23.1039H36.901L36.581 22.4639H39.781L39.333 21.5039H39.909L39.525 20.5439H39.653L39.525 20.2239H39.461L39.205 19.5839H39.013L38.693 18.9439H39.333L38.821 17.6639H37.093L36.517 16.3839H37.861L37.349 15.1039H33.893L33.765 14.7839H38.821L38.565 14.1439C38.5223 14.0159 38.501 13.8666 38.501 13.6959C38.501 13.6106 38.5223 13.5466 38.565 13.5039H39.461C39.6743 12.6079 40.1863 12.1599 40.997 12.1599H51.813C52.4103 12.1599 52.8583 12.3093 53.157 12.6079C53.4557 12.8639 53.669 13.1626 53.797 13.5039H52.901C52.901 13.5466 52.901 13.5893 52.901 13.6319C52.9437 13.6319 52.965 13.6533 52.965 13.6959L53.157 14.1439L53.349 14.7839H48.229L48.357 15.1039H51.813L52.325 16.3839H50.981L51.429 17.6639H53.157L53.605 18.9439H52.965L53.221 19.5839H53.413L53.797 20.5439H53.669L53.989 21.5039H53.477L53.797 22.4639H50.661L50.853 23.1039H50.597L50.725 23.4239H45.989L46.181 24.0639H51.813L52.069 23.4239H57.829L57.957 23.1039H54.437L54.693 22.4639H59.173L59.557 21.5039H58.917L59.301 20.5439H59.365L59.493 20.2239H59.877L60.069 19.5839H58.469L58.725 18.9439H60.773L61.285 17.6639H59.877L60.389 16.3839H62.885L63.333 15.1039H57.957L58.085 14.7839H63.269L63.525 14.1439L63.653 13.6959C63.6957 13.6533 63.717 13.5893 63.717 13.5039H61.605C61.8183 13.1626 62.0743 12.8639 62.373 12.6079C62.7143 12.3093 63.1623 12.1599 63.717 12.1599H74.405C74.789 12.1599 75.1303 12.3093 75.429 12.6079C75.7277 12.8639 75.877 13.1626 75.877 13.5039H77.989C77.989 13.7599 77.9677 13.9733 77.925 14.1439L77.669 14.7839ZM59.173 25.6639L59.237 25.3439H54.821L54.949 25.6639H56.549L56.805 26.3039H55.845L55.973 26.6239H55.269L55.717 27.9039H56.613L56.741 28.2879L56.869 27.9039L57.317 26.6239H57.765L57.893 26.3039H57.445L57.637 25.6639H59.173ZM114.66 35.9039H118.308V37.1839H114.916V38.4639H113.764V38.7839H113.892V39.1039H111.908V40.0639H112.676V41.3439H113.188V41.6639H105.06V42.3039H105.444V43.5839H113.764V43.7119C113.764 44.0959 113.614 44.4799 113.316 44.8639H115.044C114.873 45.0346 114.745 45.1413 114.66 45.1839H112.74C112.526 45.3546 112.228 45.4399 111.844 45.4399H81.7635C81.3368 45.4399 81.0168 45.3546 80.8035 45.1839H82.7235C82.6382 45.1413 82.5102 45.0346 82.3395 44.8639H80.6755C80.3768 44.4799 80.2275 44.0959 80.2275 43.7119V43.5839H71.9075V42.3039H71.5235V41.6639H79.6515V41.3439H79.1395V40.0639H78.3715V39.1039H80.3555V38.7839H80.2275V38.4639H81.3795V37.1839H84.7715V36.3519C84.7715 36.1386 84.7928 35.9893 84.8355 35.9039H81.1235L81.3155 35.2639H79.4595L79.6515 34.9439H74.9155C74.9582 34.8586 75.0435 34.7519 75.1715 34.6239H79.4595C79.6302 34.3679 79.7795 34.1973 79.9075 34.1119L80.4195 33.6639H75.6195L76.7715 32.7039H89.2515L89.9555 32.0639H85.6675L85.9875 31.7439H87.0115L88.0995 30.7839H82.3395L83.0435 30.1439H82.5315L82.9155 29.8239H83.6835L84.0675 29.5039H84.7715L85.9235 28.5439H86.3075L87.7795 27.2639H87.3315L88.8035 25.9839H88.9315L90.4675 24.7039H90.3395L91.1075 24.0639H90.9795L92.0675 23.1679H80.4835C80.0142 23.1679 79.6515 23.0399 79.3955 22.7839H78.8835C78.7555 22.6986 78.6488 22.5919 78.5635 22.4639H79.7795C79.6942 22.2933 79.6088 22.0799 79.5235 21.8239H79.1395C79.0968 21.7386 79.0755 21.6319 79.0755 21.5039H77.9235V20.2239H77.0275V19.9039H77.2835V19.5839H78.1155V19.2639H79.5875V18.6239H78.8195V17.9839H79.0755V16.0639H79.3315V15.1039H79.0115V14.7839H78.8835V14.4639H81.3795V13.8879C81.3795 13.6746 81.4222 13.4399 81.5075 13.1839H78.1795C78.4782 12.5013 79.0115 12.1599 79.7795 12.1599H108.068C108.75 12.1599 109.284 12.5013 109.668 13.1839H112.932C113.06 13.3546 113.124 13.5893 113.124 13.8879V14.4639H110.628V14.7839H110.756V15.1039H111.076V16.0639H110.82V17.9839H110.564V18.6239H111.332V19.2639H109.86V19.5839H109.028V19.9039H108.772V20.2239H109.668V21.5039H110.82V21.8239H111.204V21.9519C111.204 22.1653 111.182 22.3359 111.14 22.4639H109.924C109.924 22.5066 109.881 22.6133 109.796 22.7839H110.308C110.222 23.0826 109.988 23.4239 109.604 23.8079L109.284 24.0639H109.348L108.644 24.7039H108.772L107.3 25.9839H107.172L105.7 27.2639H106.148L104.676 28.5439H104.292L103.204 29.5039H102.436L102.116 29.8239H101.348L100.964 30.1439H101.476L100.772 30.7839H106.532L105.444 31.7439H104.42L104.1 32.0639H108.388L107.684 32.7039H95.2035L94.1155 33.6639H98.9155L98.0195 34.4319H110.692C111.033 34.4319 111.289 34.4959 111.46 34.6239H107.172C107.3 34.6666 107.449 34.7733 107.62 34.9439H112.356L112.548 35.2639H114.404C114.489 35.4346 114.574 35.6479 114.66 35.9039ZM159.194 36.2239H153.306V36.8639H157.466V37.1839H156.698V37.8239H155.098V39.4239H155.674V40.0639H157.466V40.7039H153.178V41.9839H157.722V42.9439H155.034V43.5839H155.866V43.9039H155.098C155.012 44.1599 154.927 44.3733 154.842 44.5439C154.799 44.6293 154.714 44.7359 154.586 44.8639H154.65C154.479 45.0346 154.351 45.1413 154.266 45.1839H154.138C153.924 45.3546 153.626 45.4399 153.242 45.4399H140.698C140.356 45.4399 140.036 45.3546 139.738 45.1839H139.93C139.844 45.1413 139.716 45.0346 139.546 44.8639H139.482C139.354 44.7359 139.268 44.6293 139.226 44.5439H139.29C139.162 44.3306 139.098 44.1173 139.098 43.9039H139.866V43.5839H139.034V42.9439H141.722V41.9839H137.178V40.7039H141.466V40.0639H139.674V39.4239H139.098V37.8239H140.698V37.1839H141.466V36.8639H137.306V36.2239H143.194V35.5839H138.97V34.6239H140.954V33.9839H138.394V34.6239H136.922V35.5839H135.834V36.2239H136.474V36.8639H134.17V37.1839H132.826V37.8239H132.698V38.4639H132.57V39.4239H130.266V40.0639H127.578V40.7039H131.738V41.9839H126.81V42.9439H128.346V43.5839H131.802V43.9039H132.698L132.506 44.5439H132.442C132.399 44.5866 132.356 44.6293 132.314 44.6719C132.271 44.7146 132.228 44.7786 132.186 44.8639H132.25C132.079 45.0346 131.951 45.1413 131.866 45.1839H133.274C132.975 45.3546 132.655 45.4399 132.314 45.4399H119.834C119.45 45.4399 119.151 45.3546 118.938 45.1839H117.53C117.444 45.1413 117.316 45.0346 117.146 44.8639C117.018 44.7359 116.932 44.6293 116.89 44.5439H116.954C116.911 44.4586 116.868 44.3733 116.826 44.2879C116.783 44.1599 116.762 44.0319 116.762 43.9039H115.866V43.5839H112.41V42.9439H110.874V41.9839H115.802V40.7039H111.642V40.0639H114.33V39.4239H116.634V38.4639H116.762V37.8239H116.89V37.1839H118.234V36.8639H120.538V36.2239H119.898V35.5839H120.986V34.6239H122.458V33.9839H114.586V33.6639H115.482V33.3439H116.954V33.0239H115.674V32.7039H116.826V31.7439H116.762V30.7839H115.674V30.4639H116.57V29.8239H117.53V29.5039H115.93V28.2239H114.202V27.5839H115.674V26.3039H117.466V25.9839H116.442V25.6639H116.378V25.3439H116.634V24.7039H118.426V24.3839H115.93V23.7439H116.762V22.7839H118.106V22.4639H117.274V21.5039H116.698V21.1839H116.186V20.2239H117.402V18.9439H115.418V17.6639H117.402V16.7039H115.354V15.4239H116.698V15.1039H117.338V14.1439H116.634V13.1839H116.442V11.9039H116.954V10.9439H118.81V9.98394H116.442V9.34394H114.97V8.06394H111.258V6.78394H117.978V5.50394H117.402V4.22394H114.778V3.58394H119.13V3.26394H116.57V1.98394H115.93V1.72794C115.93 1.51461 115.972 1.27994 116.058 1.02394H116.826C117.124 0.341273 117.658 -6.10352e-05 118.426 -6.10352e-05H130.906C131.674 -6.10352e-05 132.207 0.341273 132.506 1.02394H131.738C131.823 1.27994 131.866 1.51461 131.866 1.72794V1.98394H132.506V3.26394H135.066V3.58394H130.714V4.22394H133.338V5.50394H133.914V6.78394H127.194V8.06394H130.906V9.34394H132.378V9.98394H134.746V10.9439H132.89V11.9039H132.378V13.1839H132.57V14.1439H133.274V15.1039H134.81C135.023 14.9333 135.215 14.7839 135.386 14.6559C135.556 14.4853 135.748 14.3146 135.962 14.1439H134.106C134.362 13.9733 134.596 13.8026 134.81 13.6319C135.066 13.4613 135.343 13.3119 135.642 13.1839C136.708 12.5866 137.839 12.1599 139.034 11.9039H140.506C141.615 11.6479 142.746 11.5199 143.898 11.5199C145.007 11.5199 146.074 11.6479 147.098 11.9039H145.626C146.735 12.1599 147.802 12.5866 148.826 13.1839C149.039 13.3119 149.274 13.4613 149.53 13.6319C149.786 13.7599 150.02 13.9306 150.234 14.1439H152.026C152.239 14.3146 152.41 14.4853 152.538 14.6559C152.708 14.7839 152.879 14.9333 153.05 15.1039H151.386C151.428 15.1466 151.471 15.1893 151.514 15.2319C151.556 15.2746 151.599 15.3386 151.642 15.4239H150.17C150.383 15.5946 150.554 15.8079 150.682 16.0639C150.852 16.2773 151.023 16.4906 151.194 16.7039H153.306L153.882 17.6639H151.898L152.474 18.9439H154.522C154.607 19.1146 154.692 19.3279 154.778 19.5839C154.863 19.7973 154.927 20.0106 154.97 20.2239H153.754C153.839 20.3946 153.882 20.5653 153.882 20.7359C153.924 20.8639 153.967 21.0133 154.01 21.1839H154.522C154.564 21.2693 154.586 21.3759 154.586 21.5039H155.226L155.418 22.4639H156.186C156.228 22.5493 156.25 22.6559 156.25 22.7839H154.97L155.034 23.4239H154.394V23.7439H155.418C155.46 23.8293 155.482 23.9359 155.482 24.0639C155.482 24.1919 155.482 24.2986 155.482 24.3839H157.274V24.7039H155.162V25.3439H155.098C155.14 25.4293 155.162 25.5359 155.162 25.6639H155.098V25.9839H154.906V26.3039H155.034V27.5839H152.538V28.2239H155.226V29.5039H154.97V29.8239H155.546V30.4639H154.33V30.7839H155.354V31.7439H156.314V32.7039H155.098V33.0239H155.738V33.3439H156.186V33.6639H153.498V33.9839H156.954V34.6239H154.97V35.5839H159.194V36.2239ZM133.082 15.1039H132.634V15.4239H132.762C132.847 15.3386 132.911 15.2746 132.954 15.2319C132.996 15.1893 133.039 15.1466 133.082 15.1039ZM137.498 33.6639H140.186V33.3439H139.738V33.0239H139.098V32.7039H140.314V31.7439H139.354V30.7839H138.33V30.4639H139.546V29.8239H138.97V29.5039H139.226V28.2239H136.538V27.5839H139.034V26.3039H138.906V25.9839H139.098C139.098 25.8986 139.076 25.8346 139.034 25.7919C139.034 25.7493 139.034 25.7066 139.034 25.6639H139.098C139.055 25.5786 139.034 25.4719 139.034 25.3439H139.098L138.906 24.7039H141.018C140.932 24.5333 140.89 24.4266 140.89 24.3839H139.098C139.055 24.2559 138.97 24.1493 138.842 24.0639C138.756 23.9359 138.671 23.8293 138.586 23.7439H137.562C137.391 23.5733 137.242 23.4666 137.114 23.4239H137.818C137.348 23.1253 136.73 22.9759 135.962 22.9759C135.194 22.9759 134.596 23.1253 134.17 23.4239H134.106C134.02 23.4666 133.892 23.5733 133.722 23.7439H132.89C132.804 23.8293 132.719 23.9359 132.634 24.0639C132.548 24.1493 132.463 24.2559 132.378 24.3839H134.81C134.724 24.5546 134.682 24.6613 134.682 24.7039H132.89L132.698 25.3439H132.378C132.378 25.4719 132.356 25.5786 132.314 25.6639H132.442V25.9839H133.402V26.3039H131.61V27.5839H130.138V28.2239H131.866V29.5039H133.466V29.8239H132.506V30.4639H131.61V30.7839H132.698V31.7439H132.762V32.7039H131.61V33.0239H132.89V33.3439H131.418V33.6639H130.522V33.9839H137.498V33.6639ZM194.046 41.9839V42.6239H199.614V43.7119C199.614 43.7973 199.593 43.8613 199.55 43.9039H196.542C196.457 44.5013 196.179 44.9279 195.71 45.1839H195.134C194.921 45.3546 194.622 45.4399 194.238 45.4399H183.038C182.654 45.4399 182.355 45.3546 182.142 45.1839H182.654C182.227 44.8853 181.971 44.4586 181.886 43.9039H184.958V42.6239H182.398C182.185 42.8373 181.95 43.0506 181.694 43.2639C181.481 43.4773 181.246 43.6906 180.99 43.9039H180.286C179.518 44.4586 178.75 44.8853 177.982 45.1839H175.934C175.635 45.3119 175.294 45.4186 174.91 45.5039C174.569 45.6319 174.206 45.7386 173.822 45.8239H173.31C172.883 45.9093 172.435 45.9733 171.966 46.0159C171.539 46.0586 171.091 46.0799 170.622 46.0799C170.11 46.0799 169.598 46.0586 169.086 46.0159C168.617 45.9733 168.147 45.9093 167.678 45.8239H168.19C167.763 45.7386 167.337 45.6319 166.91 45.5039C166.526 45.4186 166.142 45.3119 165.758 45.1839H167.742C166.803 44.8426 165.95 44.4159 165.182 43.9039H165.886C165.587 43.6906 165.31 43.4773 165.054 43.2639C164.798 43.0506 164.542 42.8373 164.286 42.6239H161.086L160.51 41.9839C160.467 41.8986 160.403 41.7919 160.318 41.6639C160.233 41.5359 160.147 41.4293 160.062 41.3439H161.982C161.897 41.1733 161.79 41.0239 161.662 40.8959C161.577 40.7253 161.491 40.5546 161.406 40.3839H160.83C160.83 40.3413 160.787 40.2346 160.702 40.0639H160.126L159.934 39.7439H159.998L159.614 38.7839H159.294C159.251 38.6133 159.209 38.4639 159.166 38.3359C159.123 38.1653 159.081 37.9946 159.038 37.8239H156.606C156.478 37.3546 156.414 36.9279 156.414 36.5439H158.526V35.9039C158.526 35.6906 158.526 35.4773 158.526 35.2639C158.526 35.0079 158.547 34.7946 158.59 34.6239H160.51C160.553 34.4106 160.595 34.1973 160.638 33.9839C160.681 33.7279 160.723 33.5146 160.766 33.3439H158.974L159.102 33.0239H159.166L159.294 32.7039H159.23C159.315 32.5333 159.401 32.3839 159.486 32.2559C159.571 32.0853 159.635 31.9146 159.678 31.7439H155.902L156.286 31.1039H154.878C155.006 30.9759 155.091 30.8693 155.134 30.7839H157.438C157.523 30.6986 157.609 30.5919 157.694 30.4639C157.779 30.3359 157.865 30.2293 157.95 30.1439H158.078C158.505 29.6319 158.953 29.2053 159.422 28.8639H154.174C154.473 28.6506 154.793 28.4373 155.134 28.2239C155.433 27.9679 155.753 27.7546 156.094 27.5839H159.614L160.19 27.2639H161.982C162.067 27.1786 162.174 27.1146 162.302 27.0719C162.43 27.0293 162.537 26.9866 162.622 26.9439H163.39C164.158 26.5599 164.99 26.2399 165.886 25.9839H169.79C170.387 25.7706 170.985 25.5999 171.582 25.4719C172.222 25.3013 172.883 25.1519 173.566 25.0239H171.966L172.99 24.8319L179.774 23.7439V23.4239H183.038V23.1039H176.894V22.7839H180.542C180.542 22.5706 180.542 22.3999 180.542 22.2719C180.542 22.1013 180.521 21.9519 180.478 21.8239C180.435 21.4399 180.286 21.1199 180.03 20.8639H178.942C178.899 20.8213 178.793 20.7573 178.622 20.6719L178.174 20.8639H177.086C176.915 20.9919 176.745 21.1413 176.574 21.3119C176.403 21.4399 176.211 21.6106 175.998 21.8239H176.062C175.593 22.2933 174.995 22.5279 174.27 22.5279H163.39C162.75 22.5279 162.323 22.2933 162.11 21.8239H162.046C161.918 21.6106 161.875 21.3759 161.918 21.1199V20.8639H162.942C162.985 20.7786 163.006 20.6719 163.006 20.5439H158.91C158.91 20.3733 158.953 20.1599 159.038 19.9039H168.254C168.254 19.8613 168.297 19.7546 168.382 19.5839H162.686C162.814 19.1573 163.006 18.7306 163.262 18.3039H164.35C164.478 18.0906 164.627 17.8773 164.798 17.6639C164.969 17.4506 165.139 17.2373 165.31 17.0239H160.51L161.086 16.3839H170.366C170.537 16.2133 170.707 16.0639 170.878 15.9359C171.091 15.7653 171.283 15.5946 171.454 15.4239H165.566L165.95 15.1039H164.158C164.371 14.9333 164.606 14.7839 164.862 14.6559C165.118 14.4853 165.374 14.3146 165.63 14.1439H168.638C169.534 13.6319 170.473 13.2053 171.454 12.8639H171.902C173.054 12.4373 174.334 12.1173 175.742 11.9039C177.193 11.6479 178.771 11.5199 180.478 11.5199C183.977 11.5199 186.942 11.9679 189.374 12.8639H188.862C189.331 13.0346 189.779 13.2266 190.206 13.4399C190.675 13.6533 191.123 13.8879 191.55 14.1439H188.542L189.886 15.1039H191.678L192.062 15.4239H197.95L198.91 16.3839H189.63C189.715 16.4693 189.801 16.5759 189.886 16.7039C189.971 16.8319 190.057 16.9386 190.142 17.0239H194.878C195.049 17.1946 195.198 17.4079 195.326 17.6639C195.497 17.8773 195.625 18.0906 195.71 18.3039H194.686L195.262 19.5839H200.958C201.043 19.7546 201.086 19.8613 201.086 19.9039H191.87C191.955 19.9893 191.998 20.0959 191.998 20.2239C192.041 20.3519 192.083 20.4586 192.126 20.5439H194.238C194.238 20.5866 194.238 20.6293 194.238 20.6719C194.281 20.7146 194.302 20.7786 194.302 20.8639H195.39L195.774 22.7839H192.062C192.062 22.8266 192.062 22.8693 192.062 22.9119C192.105 22.9546 192.126 23.0186 192.126 23.1039H198.27V23.4239H195.07V23.7439C195.113 23.9573 195.134 24.1706 195.134 24.3839C195.134 24.5973 195.134 24.8106 195.134 25.0239H196.798V25.9839H192.83V26.9439H192.126V27.2639H190.398V27.5839H186.878V28.8639H192.126V30.1439H191.998V30.7839H189.694V31.1039H191.102V31.7439H195.326V32.7039H194.558V33.3439H195.07V34.6239H194.686V36.5439H192.574V37.8239H195.006V38.7839H195.326V40.0639H195.902V40.3839H196.414V41.3439H194.43V41.9839H194.046ZM175.486 20.4799C175.187 20.4799 174.974 20.5013 174.846 20.5439H176.19C176.062 20.5013 175.827 20.4799 175.486 20.4799ZM175.934 31.6159L175.358 31.7439H175.934V31.6159ZM173.758 33.3439H175.55C175.081 33.6853 174.846 34.1119 174.846 34.6239H172.926V34.8159C172.926 35.2426 173.075 35.6053 173.374 35.9039C173.587 36.2026 174.014 36.4159 174.654 36.5439H176.19C176.83 36.4159 177.385 36.2026 177.854 35.9039C178.238 35.5626 178.601 35.1359 178.942 34.6239H179.262C179.347 34.4106 179.433 34.2186 179.518 34.0479C179.603 33.8346 179.667 33.5999 179.71 33.3439H179.198C179.198 33.2586 179.198 33.1946 179.198 33.1519C179.241 33.1093 179.262 33.0666 179.262 33.0239H179.326V32.7039H180.094C180.137 32.5333 180.158 32.3839 180.158 32.2559C180.158 32.0853 180.158 31.9146 180.158 31.7439H179.07L175.934 32.4479C175.763 32.4906 175.593 32.5333 175.422 32.5759C175.294 32.6186 175.166 32.6613 175.038 32.7039C174.91 32.7466 174.782 32.7893 174.654 32.8319C174.526 32.8746 174.419 32.9386 174.334 33.0239H174.27C174.185 33.0666 174.099 33.1093 174.014 33.1519C173.929 33.1946 173.843 33.2586 173.758 33.3439ZM174.078 36.5439H172.478C172.649 36.5866 172.905 36.6079 173.246 36.6079C173.374 36.6079 173.502 36.6079 173.63 36.6079C173.801 36.6079 173.95 36.5866 174.078 36.5439ZM237.251 44.2239C237.165 44.6506 236.952 44.9706 236.611 45.1839H240.771C240.557 45.3546 240.28 45.4399 239.939 45.4399H226.499C226.115 45.4399 225.752 45.3546 225.411 45.1839H215.107C214.893 45.3546 214.595 45.4399 214.211 45.4399H203.011C202.627 45.4399 202.328 45.3546 202.115 45.1839H210.883C210.499 44.9279 210.264 44.6079 210.179 44.2239H201.155C201.112 44.0959 201.091 43.9253 201.091 43.7119V42.9439H199.043V42.3039H200.579V41.0239H199.811V39.7439H200.259V38.7839H200.643V38.1439H200.387V37.5039H199.299V36.5439H200.195V35.9039H201.091V34.6239H200.003V33.9839H199.811V33.6639H200.387V33.0239H200.323V32.7039H199.875V31.7439H201.539V30.7839H203.203V30.4639H201.283V29.5039H200.387V28.5439H200.131V27.9039H200.515V26.6239H200.259V25.3439H200.451V25.0239H200.323V24.7039H200.131V24.3839H200.003V23.1039H199.683V22.7839H201.731V21.8239H199.875V21.5039H202.755V20.5439H199.171V20.2239H201.091V19.9039H205.571V18.9439H199.171V17.6639H200.259V16.3839H200.835V16.0639H201.027V15.1039H199.811V14.4639H200.515V13.1839H199.939V12.2239H200.579V10.9439H200.451V9.98394H199.939V8.70394H201.219V8.06394H200.259V7.74394H198.531V7.42394H196.931V6.14394H197.827V5.82394H199.555V4.86394H195.267V4.54394H203.331V4.22394H202.371V3.58394H191.427V3.26394H189.827V1.98394H204.355V1.66394H199.299C199.299 1.49327 199.341 1.27994 199.427 1.02394H194.499C194.797 0.341273 195.309 -6.10352e-05 196.035 -6.10352e-05H207.235C208.003 -6.10352e-05 208.536 0.341273 208.835 1.02394H213.763C213.891 1.19461 213.955 1.40794 213.955 1.66394H219.011V1.98394H204.483V3.26394H206.083V3.58394H217.027V4.22394H217.987V4.54394H209.923V4.86394H214.211V5.82394H212.483V6.14394H211.587V7.42394H213.187V7.74394H214.915V8.06394H215.875V8.70394H214.595V9.98394H215.107V10.9439H215.235V12.2239H214.595V13.1839H215.171V14.4639H214.467V15.1039H215.683V16.0639H215.491V16.3839H214.915V17.6639H213.827V18.9439H219.907L220.675 17.6639H217.475L218.307 16.3839H218.691L218.883 16.0639H218.563L219.139 15.1039H219.907L220.291 14.4639H220.163L220.931 13.2479V13.1839H220.355C220.44 13.0559 220.568 12.8853 220.739 12.6719C220.952 12.4586 221.229 12.3093 221.571 12.2239H221.891C222.019 12.1813 222.211 12.1599 222.467 12.1599H235.395C235.608 12.1599 235.757 12.1813 235.843 12.2239H235.523C235.992 12.3519 236.333 12.6719 236.547 13.1839H237.123C237.165 13.2693 237.187 13.3546 237.187 13.4399C237.229 13.5253 237.251 13.6106 237.251 13.6959C237.251 13.9519 237.165 14.2079 236.995 14.4639H237.123C237.123 14.5066 237.08 14.5706 236.995 14.6559L236.675 15.1039H235.971L235.267 16.0639H235.651L235.395 16.3839H235.011L234.115 17.6639H237.251L236.355 18.9439L235.651 19.9039H236.227L236.035 20.2239H232.707L232.451 20.5439H229.891L229.187 21.5039H230.211L230.019 21.8239H232.963L232.515 22.4639L232.259 22.7839H230.275L230.019 23.1039H230.339L229.443 24.3839H229.571L229.315 24.7039H229.571L229.315 25.0239H229.443L229.251 25.3439H229.059L228.163 26.6239H228.419L228.035 27.1359L228.547 27.9039H228.163L228.547 28.5439H228.803L229.443 29.5039H230.339L230.979 30.4639H232.899L233.155 30.7839H231.427L232.067 31.7439H230.403L231.043 32.7039H231.491L231.683 33.0239H231.747L232.195 33.6639H231.747L231.939 33.9839H232.899L233.283 34.6239H234.051L234.883 35.9039H233.667L234.051 36.5439H233.987L234.563 37.5039H235.075L235.459 38.1439H234.947L235.395 38.7839H236.035L236.611 39.7439H236.355L237.187 41.0239H236.867L237.699 42.3039H239.235L239.683 42.9439H243.203L243.267 43.0719C243.437 43.3279 243.523 43.6053 243.523 43.9039V44.2239H237.251ZM215.747 20.2239H213.827V20.5439H216.131L216.323 20.2239H219.651L219.843 19.9039H215.747V20.2239ZM216.387 21.8239V22.4639L216.771 21.8239H216.387ZM226.499 44.2239L225.731 42.9439H222.211L221.827 42.3039H220.291L219.523 41.0239H219.843L219.075 39.7439H219.331L218.755 38.7839H218.115L217.731 38.1439H218.243L217.859 37.5039H217.411L216.835 36.5439H216.963L216.579 35.9039H217.731L216.963 34.6239H216.259L215.875 33.9839H214.979L214.787 33.6639H214.467V33.9839H214.659V34.6239H215.747V35.9039H214.851V36.5439H213.955V37.5039H215.043V38.1439H215.299V38.7839H214.915V39.7439H214.467V41.0239H215.235V42.3039H213.699V42.9439H215.747V43.7119C215.747 43.9253 215.725 44.0959 215.683 44.2239H226.499ZM251.368 42.9439H259.624V43.9039H250.664C250.578 44.5013 250.301 44.9279 249.832 45.1839H253.544C253.33 45.3546 253.032 45.4399 252.648 45.4399H241.512C241.085 45.4399 240.765 45.3546 240.552 45.1839H236.904C236.434 44.9279 236.157 44.5013 236.072 43.9039H245.032V42.9439H236.776V41.6639H235.624V40.7039H244.712V39.7439H232.936V39.4239H233.832V38.4639H241.192V38.1439H235.176V37.8239H240.424V37.1839H239.72V36.2239H241.256V35.9039H241.96V34.6239H242.152V34.3039H242.6V33.0239H244.2V32.7039H241.384V32.5759C241.384 32.1919 241.533 31.8079 241.832 31.4239H243.944C244.285 31.0399 244.712 30.8479 245.224 30.8479H256.36C256.914 30.8479 257.341 31.0399 257.64 31.4239H255.592C255.848 31.7226 255.976 32.1066 255.976 32.5759V32.7039H258.792V33.0239H257.192V34.3039H256.744V34.6239H256.552V35.9039H255.848V36.2239H254.312V37.1839H255.016V37.8239H249.768V38.1439H255.784V38.4639H248.424V39.4239H247.528V39.7439H259.304V40.7039H250.216V41.6639H251.368V42.9439ZM297.097 24.7039H301.449C301.449 24.7466 301.428 24.7893 301.385 24.8319C301.342 24.8746 301.3 24.9386 301.257 25.0239H299.785C299.444 25.4506 298.974 25.6639 298.377 25.6639H285.897C285.3 25.6639 284.83 25.4506 284.489 25.0239H285.961L285.769 24.7039H281.353L281.161 24.3839C281.118 24.2133 281.012 23.9999 280.841 23.7439H279.753C279.497 23.2746 279.22 22.9546 278.921 22.7839H280.521C280.18 22.5706 279.774 22.4639 279.305 22.4639C278.793 22.4639 278.366 22.5706 278.025 22.7839H276.681C276.34 22.9546 276.062 23.2746 275.849 23.7439H275.273C275.188 23.9146 275.102 24.1279 275.017 24.3839H278.473C278.43 24.4693 278.409 24.5759 278.409 24.7039H280.137C280.094 24.7893 280.073 24.8959 280.073 25.0239H282.185C282.142 25.1093 282.121 25.2159 282.121 25.3439C282.121 25.4719 282.1 25.5786 282.057 25.6639H282.313V25.9839H279.817V26.6239H271.817V26.9439H284.105C284.062 27.1573 284.041 27.3706 284.041 27.5839C284.041 27.7973 284.041 28.0106 284.041 28.2239H272.713V28.5439H277.257V28.8639H276.041V30.1439H272.585C272.585 30.3146 272.585 30.4853 272.585 30.6559C272.585 30.7839 272.606 30.9333 272.649 31.1039V31.7439H276.489C276.489 32.0426 276.51 32.2559 276.553 32.3839H273.033C273.118 32.9386 273.204 33.3653 273.289 33.6639H272.585C272.841 34.2613 273.204 34.6879 273.673 34.9439H275.785C276.126 35.0719 276.489 35.1359 276.873 35.1359C277.342 35.1359 277.726 35.0719 278.025 34.9439H278.921C279.305 34.7306 279.668 34.3039 280.009 33.6639H278.281L278.473 33.2159C278.558 33.0453 278.644 32.8959 278.729 32.7679C278.857 32.5973 278.964 32.4693 279.049 32.3839H283.529C283.913 32.0853 284.34 31.9359 284.809 31.9359H297.289C297.716 31.9359 298.121 32.0853 298.505 32.3839H294.025C294.452 32.7253 294.622 33.1519 294.537 33.6639H296.265C296.222 33.8346 296.18 34.0266 296.137 34.2399C296.137 34.4533 296.094 34.6879 296.009 34.9439H295.049L294.857 35.5839H298.953L298.825 35.9039H297.481L297.353 36.2239H290.249L290.057 36.5439H297.801L297.097 37.8239H297.737L297.545 38.1439H292.745C292.617 38.3573 292.468 38.5706 292.297 38.7839C292.169 38.9973 292.02 39.2106 291.849 39.4239H290.697C290.654 39.4666 290.612 39.5093 290.569 39.5519C290.526 39.5946 290.484 39.6586 290.441 39.7439H294.857C294.814 39.7866 294.772 39.8293 294.729 39.8719C294.686 39.9146 294.644 39.9786 294.601 40.0639H291.401C291.358 40.1066 291.316 40.1493 291.273 40.1919C291.23 40.2346 291.166 40.2986 291.081 40.3839H293.769L293.129 41.0239H292.809L292.489 41.3439H293.257L292.489 41.9839H293.641C293.428 42.1546 293.193 42.3253 292.937 42.4959C292.724 42.6239 292.489 42.7733 292.233 42.9439H293.513L293.001 43.2639H291.593L290.441 43.9039H290.825C290.142 44.2879 289.374 44.6079 288.521 44.8639H287.433C287.049 44.9919 286.665 45.1199 286.281 45.2479C285.897 45.3333 285.513 45.4186 285.129 45.5039H284.553C284.254 45.5466 283.956 45.5893 283.657 45.6319C283.358 45.7173 283.06 45.7813 282.761 45.8239H284.041C283.444 45.9093 282.825 45.9733 282.185 46.0159C281.545 46.0586 280.884 46.0799 280.201 46.0799C279.561 46.0799 278.942 46.0586 278.345 46.0159C277.748 45.9733 277.15 45.9093 276.553 45.8239H275.209C274.91 45.7813 274.612 45.7173 274.313 45.6319C274.057 45.5893 273.78 45.5466 273.481 45.5039H274.057C273.673 45.4186 273.289 45.3333 272.905 45.2479C272.521 45.1199 272.158 44.9919 271.817 44.8639H272.905C272.094 44.6079 271.348 44.2879 270.665 43.9039H270.217C270.046 43.8186 269.854 43.7333 269.641 43.6479C269.47 43.5199 269.3 43.3919 269.129 43.2639H270.473L269.961 42.9439H268.681L267.401 41.9839H266.313C266.185 41.8986 266.057 41.7919 265.929 41.6639C265.801 41.5359 265.694 41.4293 265.609 41.3439H264.777L264.457 41.0239H264.777L264.137 40.3839H261.513C261.385 40.2559 261.3 40.1493 261.257 40.0639H264.457C264.329 39.9359 264.244 39.8293 264.201 39.7439H259.721C259.678 39.6586 259.593 39.5519 259.465 39.4239H260.617C260.446 39.2106 260.297 38.9973 260.169 38.7839C260.041 38.5706 259.913 38.3573 259.785 38.1439H264.585L264.393 37.8239H263.753C263.625 37.6106 263.497 37.3973 263.369 37.1839C263.284 36.9706 263.198 36.7573 263.113 36.5439H255.433L255.305 36.2239H262.409L262.281 35.9039H263.625L263.497 35.5839H259.401L259.209 34.9439H257.097C257.054 34.7306 257.012 34.5173 256.969 34.3039C256.926 34.0906 256.884 33.8773 256.841 33.6639H257.481L257.289 32.3839H260.809V31.7439H256.969V31.4239C256.926 31.2106 256.905 30.9973 256.905 30.7839C256.905 30.5706 256.905 30.3573 256.905 30.1439H260.361V28.8639H261.577V28.5439H257.033V28.2239H268.361V26.9439H256.137V26.6239H264.137V25.9839H266.633V25.6639H266.377C266.42 25.5786 266.441 25.4719 266.441 25.3439C266.441 25.2159 266.441 25.1093 266.441 25.0239H264.393V24.7039H262.665C262.665 24.5759 262.686 24.4693 262.729 24.3839H259.273C259.358 24.1279 259.401 23.9146 259.401 23.7439H260.041L260.233 22.7839H261.577L261.961 21.5039H262.089C262.132 21.3333 262.196 21.1839 262.281 21.0559C262.366 20.8853 262.43 20.7146 262.473 20.5439H262.153C262.238 20.3306 262.324 20.1173 262.409 19.9039C262.537 19.6479 262.665 19.4346 262.793 19.2639H262.409C262.494 19.0933 262.58 18.9439 262.665 18.8159C262.793 18.6453 262.921 18.4746 263.049 18.3039H263.113C263.284 18.0906 263.454 17.8773 263.625 17.6639C263.796 17.4079 263.966 17.1946 264.137 17.0239H264.201C264.457 16.6826 264.777 16.3626 265.161 16.0639H264.841L265.225 15.7439H265.097L265.481 15.4239H267.849C267.934 15.3386 268.02 15.2746 268.105 15.2319C268.19 15.1893 268.254 15.1466 268.297 15.1039H266.889C266.974 15.0186 267.06 14.9546 267.145 14.9119C267.23 14.8693 267.294 14.8266 267.337 14.7839H266.825C267.593 14.2719 268.34 13.8453 269.065 13.5039H270.345C270.601 13.3759 270.857 13.2693 271.113 13.1839C271.369 13.0559 271.625 12.9493 271.881 12.8639H270.409C270.58 12.7786 270.729 12.7146 270.857 12.6719C271.028 12.6293 271.198 12.5866 271.369 12.5439H271.305C271.518 12.4586 271.71 12.3946 271.881 12.3519C272.094 12.3093 272.286 12.2666 272.457 12.2239H272.265C274.142 11.7546 276.105 11.5199 278.153 11.5199C279.305 11.5199 280.393 11.5839 281.417 11.7119C282.441 11.8399 283.401 12.0106 284.297 12.2239H284.489C284.702 12.2666 284.894 12.3093 285.065 12.3519C285.278 12.3946 285.47 12.4586 285.641 12.5439H285.705C285.876 12.5866 286.025 12.6293 286.153 12.6719C286.324 12.7146 286.494 12.7786 286.665 12.8639H288.137C288.777 13.0773 289.31 13.2906 289.737 13.5039H288.393C288.82 13.6746 289.225 13.8879 289.609 14.1439C289.993 14.3573 290.377 14.5706 290.761 14.7839H291.273C291.358 14.8266 291.444 14.8693 291.529 14.9119C291.614 14.9546 291.678 15.0186 291.721 15.1039H293.129C293.214 15.1466 293.278 15.1893 293.321 15.2319C293.406 15.2746 293.492 15.3386 293.577 15.4239H291.209L291.593 15.7439H291.721L292.105 16.0639H292.361C292.574 16.2346 292.766 16.4053 292.937 16.5759C293.108 16.7039 293.278 16.8533 293.449 17.0239H293.385C293.598 17.2373 293.79 17.4506 293.961 17.6639C294.174 17.8773 294.366 18.0906 294.537 18.3039H294.473C294.601 18.4746 294.729 18.6453 294.857 18.8159C294.985 18.9439 295.092 19.0933 295.177 19.2639H295.561C295.732 19.4773 295.881 19.6906 296.009 19.9039C296.137 20.1173 296.244 20.3306 296.329 20.5439H296.713C296.798 20.7146 296.884 20.8853 296.969 21.0559C297.054 21.1839 297.118 21.3333 297.161 21.5039H297.097C297.182 21.7173 297.268 21.9306 297.353 22.1439C297.438 22.3573 297.502 22.5706 297.545 22.7839H295.945L296.137 23.7439H297.225V24.3839L297.097 24.7039ZM342.734 26.9439C342.776 27.1573 342.798 27.3706 342.798 27.5839C342.798 27.7973 342.798 28.0106 342.798 28.2239H338.254V28.8639H335.63V29.5039H338.126V29.8239H335.246V30.7839H333.646V31.1039H337.23C337.23 31.2319 337.208 31.3386 337.166 31.4239H336.974V31.7439H337.55V31.8079C337.55 31.9786 337.528 32.1706 337.486 32.3839C337.486 32.5973 337.464 32.8106 337.422 33.0239H336.974L336.782 34.3039H337.742C337.742 34.4746 337.699 34.6879 337.614 34.9439H337.422C337.379 35.1146 337.336 35.2853 337.294 35.4559C337.251 35.5839 337.208 35.7333 337.166 35.9039H337.678C337.635 36.1173 337.571 36.3306 337.486 36.5439C337.4 36.7573 337.315 36.9706 337.23 37.1839H336.27L336.014 37.8239H336.142C336.056 37.9946 336.014 38.1013 336.014 38.1439H335.758C335.587 38.5706 335.352 38.9973 335.054 39.4239H335.182C335.139 39.5093 335.075 39.6159 334.99 39.7439C334.904 39.8719 334.819 39.9786 334.734 40.0639H334.67L333.902 41.0239C333.859 41.0666 333.816 41.1093 333.774 41.1519C333.731 41.1946 333.667 41.2586 333.582 41.3439H333.262C333.091 41.5146 332.92 41.6853 332.75 41.8559C332.579 41.9839 332.387 42.1333 332.174 42.3039H330.254L328.91 43.2639H329.166C329.08 43.3066 328.995 43.3493 328.91 43.3919C328.824 43.4346 328.739 43.4986 328.654 43.5839H328.206C328.12 43.6266 328.014 43.6693 327.886 43.7119C327.758 43.7546 327.651 43.8186 327.566 43.9039H331.022C330.808 44.0319 330.574 44.1599 330.318 44.2879C330.062 44.3733 329.806 44.4586 329.55 44.5439H328.462C328.163 44.6719 327.843 44.7999 327.502 44.9279C327.16 45.0133 326.819 45.0986 326.478 45.1839H326.734C326.222 45.3119 325.688 45.4186 325.134 45.5039C324.579 45.6319 324.003 45.7386 323.406 45.8239H325.39C324.707 45.9093 324.003 45.9733 323.278 46.0159C322.552 46.0586 321.806 46.0799 321.038 46.0799C320.227 46.0799 319.459 46.0586 318.734 46.0159C318.051 45.9733 317.347 45.9093 316.622 45.8239H314.574C314.019 45.7386 313.443 45.6319 312.846 45.5039C312.291 45.4186 311.758 45.3119 311.246 45.1839H311.054C310.712 45.0986 310.371 45.0133 310.03 44.9279C309.731 44.7999 309.411 44.6719 309.07 44.5439H310.094C309.88 44.4586 309.646 44.3733 309.39 44.2879C309.134 44.1599 308.899 44.0319 308.686 43.9039H305.23L304.654 43.5839H305.102L304.526 43.2639H304.27C303.758 42.9226 303.31 42.6026 302.926 42.3039H304.846C304.675 42.1333 304.504 41.9839 304.334 41.8559C304.163 41.6853 303.992 41.5146 303.822 41.3439H304.142C304.099 41.2586 304.056 41.1946 304.014 41.1519C303.971 41.1093 303.907 41.0666 303.822 41.0239L303.054 40.0639H303.118L302.67 39.4239H302.542C302.243 38.9973 302.008 38.5706 301.838 38.1439H302.03C301.944 37.9733 301.902 37.8666 301.902 37.8239H301.71L301.454 37.1839H302.414C302.371 36.9706 302.307 36.7573 302.222 36.5439C302.136 36.3306 302.051 36.1173 301.966 35.9039H301.454C301.411 35.7333 301.368 35.5839 301.326 35.4559C301.283 35.2853 301.24 35.1146 301.198 34.9439H300.814L300.622 34.3039H299.982L299.79 33.0239H300.43C300.387 32.8106 300.344 32.5973 300.302 32.3839C300.302 32.1706 300.302 31.9786 300.302 31.8079V31.7439H299.15V31.4239H298.83C298.83 31.3386 298.808 31.2746 298.766 31.2319C298.766 31.1893 298.766 31.1466 298.766 31.1039H302.35C302.35 30.9759 302.328 30.8693 302.286 30.7839H298.702V29.8239H300.238V29.5039H301.006V28.8639H302.35V28.2239H298.446C298.446 28.0106 298.446 27.7973 298.446 27.5839C298.446 27.3706 298.467 27.1573 298.51 26.9439H297.678V26.3039H304.014C304.056 26.1759 304.078 26.0053 304.078 25.7919V25.3439H302.35C302.35 25.1733 302.35 25.0239 302.35 24.8959C302.392 24.7253 302.414 24.5546 302.414 24.3839H303.054L303.246 23.1039H301.134C301.176 22.9333 301.219 22.7839 301.262 22.6559C301.304 22.4853 301.347 22.3146 301.39 22.1439H300.942C301.027 21.9306 301.091 21.7173 301.134 21.5039C301.219 21.2479 301.304 21.0346 301.39 20.8639H301.454C301.496 20.7786 301.539 20.6719 301.582 20.5439C301.624 20.4159 301.667 20.3093 301.71 20.2239H301.646C301.646 20.1813 301.688 20.0746 301.774 19.9039H302.094C302.264 19.4773 302.499 19.0506 302.798 18.6239H301.518L301.902 17.9839H304.27C304.312 17.8986 304.398 17.7919 304.526 17.6639H299.854C299.939 17.4933 300.046 17.3439 300.174 17.2159C300.344 17.0453 300.494 16.8746 300.622 16.7039H302.094C302.307 16.4906 302.52 16.2773 302.734 16.0639C302.99 15.8079 303.224 15.5946 303.438 15.4239H306.382C306.766 15.0826 307.214 14.7626 307.726 14.4639H308.942C309.112 14.3359 309.283 14.2293 309.454 14.1439C309.667 14.0159 309.859 13.9093 310.03 13.8239H306.254C306.638 13.6106 307.107 13.3973 307.662 13.1839H309.39C310.371 12.7999 311.395 12.4799 312.462 12.2239H310.542C312.632 11.7546 314.851 11.5199 317.198 11.5199C319.544 11.5199 321.763 11.7546 323.854 12.2239H325.838C326.904 12.4799 327.907 12.7999 328.846 13.1839H327.054C327.608 13.3973 328.078 13.6106 328.462 13.8239H332.238C332.451 13.9093 332.643 14.0159 332.814 14.1439C333.027 14.2293 333.219 14.3359 333.39 14.4639H332.174L333.518 15.4239H330.574C330.83 15.5946 331.064 15.8079 331.278 16.0639C331.534 16.2773 331.768 16.4906 331.982 16.7039H330.51C330.638 16.8746 330.766 17.0453 330.894 17.2159C331.064 17.3439 331.192 17.4933 331.278 17.6639H336.014L336.206 17.9839H333.902L334.286 18.6239H335.566C335.864 19.0506 336.099 19.4773 336.27 19.9039H335.95C336.035 20.0746 336.078 20.1813 336.078 20.2239H336.206L336.462 20.8639H336.398C336.483 21.0346 336.568 21.2479 336.654 21.5039C336.739 21.7173 336.803 21.9306 336.846 22.1439H337.486L337.678 23.1039H337.294C337.379 23.2746 337.422 23.4879 337.422 23.7439C337.464 23.9573 337.507 24.1706 337.55 24.3839H338.062C338.104 24.5546 338.126 24.7253 338.126 24.8959C338.126 25.0239 338.147 25.1733 338.19 25.3439H335.694V25.7919C335.694 26.0053 335.715 26.1759 335.758 26.3039H334.478V26.9439H342.734ZM318.158 24.3839C318.115 24.5546 318.072 24.7253 318.03 24.8959C318.03 25.0239 318.03 25.1733 318.03 25.3439H319.822C319.779 25.4719 319.758 25.5999 319.758 25.7279C319.758 25.8559 319.758 25.9839 319.758 26.1119V26.3039H320.014V26.1119C320.014 25.9839 319.992 25.8559 319.95 25.7279C319.95 25.5999 319.95 25.4719 319.95 25.3439H322.446C322.446 25.1733 322.424 25.0239 322.382 24.8959C322.382 24.7253 322.382 24.5546 322.382 24.3839H321.87C321.827 24.1279 321.763 23.8933 321.678 23.6799C321.635 23.4666 321.571 23.2746 321.486 23.1039H321.934C321.763 22.7199 321.507 22.3999 321.166 22.1439H320.526C320.099 21.8879 319.544 21.7599 318.862 21.7599C318.179 21.7599 317.646 21.8879 317.262 22.1439H317.71C317.539 22.2719 317.39 22.4213 317.262 22.5919C317.134 22.7199 317.027 22.8906 316.942 23.1039H319.054C319.011 23.2746 318.947 23.4666 318.862 23.6799C318.819 23.8933 318.776 24.1279 318.734 24.3839H318.158ZM322.51 28.2239H327.054V26.9439H318.798C318.755 26.7733 318.734 26.5599 318.734 26.3039H313.422C313.422 26.5599 313.4 26.7733 313.358 26.9439H314.19V28.2239H318.094V28.8639H316.686V29.5039H315.918V29.8239H314.382C314.382 29.9946 314.382 30.1653 314.382 30.3359C314.424 30.4639 314.446 30.6133 314.446 30.7839H319.502V29.8239H322.382V29.5039H319.886V28.8639H322.51V28.2239ZM321.486 31.4239V31.1039H314.51V31.4239H314.83V31.4879C314.83 31.5306 314.83 31.5733 314.83 31.6159C314.872 31.6586 314.894 31.7013 314.894 31.7439H315.982C316.024 31.9573 316.046 32.1706 316.046 32.3839C316.046 32.5973 316.067 32.8106 316.11 33.0239H315.47C315.555 33.5786 315.64 34.0053 315.726 34.3039H316.43C316.515 34.5599 316.6 34.7733 316.686 34.9439H317.134C317.518 35.5413 318.243 35.8399 319.31 35.8399C320.376 35.8399 321.102 35.5413 321.486 34.9439H321.742C321.784 34.8586 321.827 34.7733 321.87 34.6879C321.912 34.5599 321.955 34.4319 321.998 34.3039H321.038C321.08 34.0906 321.123 33.8986 321.166 33.7279C321.208 33.5146 321.251 33.2799 321.294 33.0239H321.742C321.784 32.8106 321.806 32.5973 321.806 32.3839C321.806 32.1706 321.827 31.9573 321.87 31.7439H321.294V31.4239H321.486ZM398.132 30.4639H396.916V30.7839H397.812V31.4239H395.444V31.7439H397.3V32.7039H396.468V33.6639H396.98V33.9839H396.596V34.6239H396.852V35.5839H396.98V36.2239H396.788V36.8639H396.724V38.1439H397.044V39.4239H396.276V40.7039H396.02V41.3439H396.98V42.6239H395.7V43.9039H396.852L396.66 44.5439H397.748C397.577 44.8426 397.385 45.0559 397.172 45.1839H396.98C396.767 45.3546 396.468 45.4399 396.084 45.4399H384.82C384.436 45.4399 384.137 45.3546 383.924 45.1839H384.052C383.839 45.0559 383.647 44.8426 383.476 44.5439H382.324L382.132 43.9039H380.98V42.6239H382.26V41.3439H381.3V40.7039H381.556V39.4239H382.324V38.1439H382.004V36.8639H382.068V36.2239H382.26V35.5839H382.132V34.6239H381.876V33.9839H382.26V33.6639H381.748V32.7039H382.58V31.7439H380.724V31.4239H376.244V31.7439H377.076V32.7039H376.948V33.6639H377.524V33.9839H377.204V34.6239H377.076V35.5839H377.012V36.2239H377.076V36.8639H377.332V38.1439H374.644V39.4239H378.164V40.7039H377.14V41.3439H377.076V42.6239H376.692V43.9039H377.076C377.076 44.0319 377.055 44.1599 377.012 44.2879C376.969 44.3733 376.927 44.4586 376.884 44.5439H378.292C378.207 44.6719 378.1 44.7999 377.972 44.9279C377.887 45.0133 377.78 45.0986 377.652 45.1839H373.94C373.727 45.3546 373.428 45.4399 373.044 45.4399H361.78C361.396 45.4399 361.097 45.3546 360.884 45.1839H364.596C364.297 45.0559 364.084 44.8426 363.956 44.5439H362.548L362.356 43.9039H361.972V42.6239H362.356V41.3439H362.42V40.7039H363.444V39.4239H359.924V38.1439H362.612V36.8639H362.356V36.2239H362.292V35.5839H362.356V34.6239H362.484V33.9839H362.804V33.6639H362.228V32.7039H362.356V31.7439H361.524V31.4239H366.324V30.7839H363.444V30.4639H363.956V29.1839H362.356V27.9039H362.484V27.5839H362.036V26.6239H362.804V26.3039H362.42V26.1119C362.42 25.8986 362.399 25.7066 362.356 25.5359C362.356 25.3653 362.335 25.1946 362.292 25.0239H362.676C362.676 24.7679 362.612 24.5546 362.484 24.3839H361.972C361.801 23.9999 361.545 23.6799 361.204 23.4239H361.524C361.183 23.1253 360.692 22.9759 360.052 22.9759C359.455 22.9759 358.943 23.1253 358.516 23.4239C358.217 23.6799 357.961 23.9999 357.748 24.3839H357.556L357.364 25.0239H357.748C357.705 25.1946 357.684 25.3653 357.684 25.5359C357.684 25.7066 357.684 25.8986 357.684 26.1119V26.3039H356.788V26.6239H357.364V27.5839H357.236V27.9039H356.98V29.1839H356.02V30.4639H355.828V30.7839H359.412V31.4239H358.452V31.7439H357.236V32.7039H357.108V33.6639H357.556V33.9839H357.428V34.6239H357.3V35.2639H357.044V35.5839H356.852V36.2239H357.364V38.1439H355.06V39.4239H357.428V40.7039H357.172V41.3439H357.62V42.6239H357.428V43.7119C357.428 43.7546 357.407 43.7973 357.364 43.8399C357.364 43.8399 357.364 43.8613 357.364 43.9039H357.684L357.492 44.5439H356.084C355.956 44.8426 355.743 45.0559 355.444 45.1839H360.052C359.839 45.3546 359.54 45.4399 359.156 45.4399H347.636C347.252 45.4399 346.953 45.3546 346.74 45.1839H342.132C341.919 45.0559 341.727 44.8426 341.556 44.5439H342.9C342.857 44.4586 342.815 44.3733 342.772 44.2879C342.729 44.1599 342.708 44.0319 342.708 43.9039H342.452V42.6239H342.644V41.3439H342.196V40.7039H342.452V39.4239H340.084V38.1439H342.388V36.2239H341.876V35.5839H342.068V35.2639H342.324V34.6239H342.452V33.9839H342.58V33.6639H342.132V32.7039H342.26V31.7439H343.476V31.4239H344.436V30.7839H340.852V30.4639H341.044V29.1839H342.004V27.9039H342.26V27.5839H342.388V26.6239H341.812V26.3039H342.708V25.0239H342.26V24.3839H342.452V23.4239H342.516V22.7839H342.132V22.4639H342.388V21.5039H341.812V20.5439H342.26V19.5839H342.196V18.3039H342.324V17.9839H341.812V17.3439H342.58V16.0639H341.876V15.7439H341.492V15.4239H338.868V14.4639H334.132V14.1439H339.7V13.8879C339.7 13.5039 339.807 13.1626 340.02 12.8639H343.604C343.689 12.7359 343.796 12.6293 343.924 12.5439H341.108C341.364 12.2879 341.727 12.1599 342.196 12.1599H352.756C353.183 12.1599 353.545 12.2879 353.844 12.5439H356.66C356.745 12.5866 356.809 12.6293 356.852 12.6719C356.895 12.7146 356.937 12.7786 356.98 12.8639H353.396C353.609 13.1626 353.716 13.5039 353.716 13.8879V14.1439H348.148V14.4639H352.884V15.4239H355.508V15.7439H355.892V15.9999L356.084 15.7439H356.02C356.063 15.6586 356.148 15.5519 356.276 15.4239H358.772C359.028 15.0826 359.348 14.7626 359.732 14.4639H361.332L361.716 14.1439H357.556C357.855 13.9306 358.153 13.7173 358.452 13.5039C358.793 13.2479 359.156 13.0346 359.54 12.8639H360.18C360.265 12.7786 360.351 12.7146 360.436 12.6719C360.564 12.6293 360.692 12.5866 360.82 12.5439H363.7C364.34 12.2453 365.023 12.0106 365.748 11.8399C366.473 11.6693 367.241 11.5626 368.052 11.5199C370.527 11.4346 372.532 11.7759 374.068 12.5439H371.188C371.273 12.5866 371.38 12.6293 371.508 12.6719C371.636 12.7146 371.743 12.7786 371.828 12.8639H371.188C371.828 13.2479 372.383 13.6746 372.852 14.1439H379.636C379.977 13.8879 380.297 13.6533 380.596 13.4399C380.937 13.2266 381.279 13.0346 381.62 12.8639H378.804L379.508 12.5439H380.596C381.321 12.2026 382.068 11.9466 382.836 11.7759C383.604 11.6053 384.393 11.5199 385.204 11.5199C387.081 11.5199 388.767 11.8613 390.26 12.5439H389.172L389.876 12.8639H392.692C393.033 13.0346 393.332 13.2266 393.588 13.4399C393.887 13.6533 394.185 13.8879 394.484 14.1439H386.292C386.377 14.1866 386.441 14.2293 386.484 14.2719C386.527 14.3146 386.569 14.3786 386.612 14.4639H396.788L397.62 15.4239H387.316C387.359 15.5093 387.444 15.6159 387.572 15.7439H394.1C394.228 15.8719 394.313 15.9786 394.356 16.0639H394.676C394.804 16.2346 394.932 16.4479 395.06 16.7039C395.188 16.9173 395.316 17.1306 395.444 17.3439H394.676C394.761 17.4293 394.825 17.5359 394.868 17.6639C394.911 17.7919 394.953 17.8986 394.996 17.9839H395.444C395.529 18.1546 395.572 18.2613 395.572 18.3039H395.508C395.593 18.4746 395.679 18.6879 395.764 18.9439C395.849 19.1573 395.913 19.3706 395.956 19.5839H396.02C396.063 19.7546 396.105 19.9253 396.148 20.0959C396.191 20.2239 396.233 20.3733 396.276 20.5439H395.828L396.02 21.5039H396.596C396.639 21.6746 396.66 21.8453 396.66 22.0159C396.66 22.1439 396.681 22.2933 396.724 22.4639H396.532V22.7839H396.916L396.98 23.4239H397.108C397.151 23.5946 397.172 23.7653 397.172 23.9359C397.172 24.0639 397.172 24.2133 397.172 24.3839H396.98V25.0239H396.468V26.3039H397.94V26.6239H396.98V27.5839H396.852V29.1839H398.132V30.4639ZM375.796 14.4639C375.924 14.6346 376.052 14.8053 376.18 14.9759C376.308 15.1039 376.415 15.2533 376.5 15.4239H380.148C380.319 15.2533 380.489 15.1039 380.66 14.9759C380.831 14.8053 381.001 14.6346 381.172 14.4639H375.796ZM374.324 15.7439L374.516 16.0639H375.284L375.604 16.7679C375.689 16.6399 375.775 16.5333 375.86 16.4479C375.945 16.3199 376.031 16.1919 376.116 16.0639H375.796L376.116 15.7439H374.324ZM383.092 30.7839H382.196V30.4639H383.412V29.1839H382.132V27.5839H382.26V26.6239H383.22V26.3039H381.748V26.1119C381.748 25.8986 381.748 25.7066 381.748 25.5359C381.748 25.3653 381.727 25.1946 381.684 25.0239H382.196L382.004 24.3839H382.196C382.025 23.9999 381.769 23.6799 381.428 23.4239H381.3C380.959 23.1253 380.468 22.9759 379.828 22.9759C379.231 22.9759 378.719 23.1253 378.292 23.4239H377.972C377.716 23.6373 377.481 23.9573 377.268 24.3839H377.844C377.716 24.5546 377.652 24.7679 377.652 25.0239H377.204C377.161 25.1946 377.14 25.3653 377.14 25.5359C377.14 25.7066 377.14 25.8986 377.14 26.1119V26.3039H377.524V26.6239H376.756V27.5839H377.204V27.9039H377.076V29.1839H378.676V30.4639H378.164V30.7839H381.044V31.4239H383.092V30.7839Z" fill="white"/>
</svg>
